<svg class="btsoft-logo" id="1925c9b8-9831-45b1-9898-e7cf2e2d43d2" data-name="Layer 1" xmlns="http://www.w3.org/2000/svg" viewBox="0 0 1205.98 367.77"><defs><style>.blue_part {fill:#212f3f;} .green_part{fill:#7cbb33;}</style></defs><title>logo</title>

                            <path class="54586e15-abb4-4e4b-8221-07249b734060 blue-part" d="M703.78,66.78A180.77,180.77,0,0,1,741.69,97l7.2,8c12.4,15.16,14.56,24,14.2,34.87l0,0,0,0,0,0,0,0,0,0,0,0,0,0,0,0c-8.48,38.19-89.39,44-166.48,11.93-35.8-14.89-122.38-48.78-152.93-41.9a40.21,40.21,0,0,1,5.7-7q3.38-3.55,6.95-6.93t7.3-6.58q3.74-3.2,7.65-6.22t8-5.84q4.07-2.82,8.29-5.45t8.59-5q4.37-2.42,8.87-4.62a163.21,163.21,0,0,1,37.23.78,6.13,6.13,0,0,1,1.1,0l0.08,0,0.08,0,0.07,0,0.07,0,0.08,0,0.08,0,0.08,0a75.74,75.74,0,0,1,10.92,1.9c37.1,10.18,68.77,35.79,108.59,38.24,36.35,2.24,55.2-10.47,42.9-28.92-3.75-5.63-9.21-10.51-18.26-16.32,4.88,2.3,11.35,5.49,16,8.24" transform="translate(-397.33 -58.54)"></path>

                            <path class="46097f0b-bcf4-41a0-88e5-1e5470d5cffa green-part" d="M772.5,139.41c8.94,18.11,9.29,18.81,13.17,29.88,5.94,19.66,6.17,20.43,8.17,32,0.79,6.2,1.91,14.46,2.38,20.7,0.56,75.5-127.82,68.75-213,31.15-1.64-.72-172.66-62-183.47-49.62l0.47-2.88,2.45-12q0.52-2.2,1.09-4.37,1.27-4.84,2.79-9.58t3.29-9.36q1.77-4.62,3.78-9.13t4.25-8.88q2.24-4.38,4.7-8.62t5.14-8.35c3.31-1,12.08-3.58,68,10.14,52.2,14,101.91,35.71,154.2,49.43,31.71,8.32,55.05,7.7,62.73,7.49,43.54-1.16,79.73-21.75,56.3-64.2-0.29-.52-0.71-1.2-1-1.72l4.53,7.91" transform="translate(-397.33 -58.54)"></path>

                            <path class="54586e15-abb4-4e4b-8221-07249b734060 blue-part" d="M793.24,271.45c-4.65,20.46-4.74,20.85-8.71,31.86-7.66,18.69-8,19.42-13.68,29.66l-4.68,7.86c-5.28,7.5-6.39,8.48-13.64,14.85-0.66.51-.7,0.54-0.75,0.57l-0.13.09-0.13.08-0.13.08-0.13.08-0.13.08-0.14.09-0.14.09c-23.62,16.64-59.53,21.57-106.74,14.65-30.48-4.47-233-64.17-233.34-64.52-2.78-8.12-6.19-19-8.38-27.34-3.44-18.34-4.36-23.28-5.06-45.23l0.08-5.3c3.59-.77,3.59-0.77,68,13.94,80.81,20.42,156.76,59.61,242.08,62.58,51.7,1.8,84.65-17.3,88.15-51.09-0.71,5.08-1.37,11.91-2.4,16.94" transform="translate(-397.33 -58.54)"></path>

                            <path class="46097f0b-bcf4-41a0-88e5-1e5470d5cffa green-part" d="M729.8,384c-13,10.86-15,12.53-27.19,20.47C692.77,410.2,684.28,415.19,670,421l-0.78.31c-57.26,21.23-198.06-31.48-199.06-32.17-13.92-12.37-15.06-13.38-23.5-22.86-12.23-15.11-13-16-19.41-26.27l-5.47-9.38c12.84,5.66,51.06,14.89,51.43,15,209.59,53.28,236.52,60.13,274,20.76-5.09,5.42-11.86,12.7-17.42,17.63" transform="translate(-397.33 -58.54)"></path>

                            <path class="46097f0b-bcf4-41a0-88e5-1e5470d5cffa green-part" d="M912.26,313.56H868.78q-9.41,0-13.44-4.22t-4-13.44V189q0-9.41,4.12-13.54t13.34-4.12h46.1a107.77,107.77,0,0,1,17.66,1.26,37.68,37.68,0,0,1,13.39,4.85,35.22,35.22,0,0,1,8.93,7.62,33.66,33.66,0,0,1,5.92,10.19,34.12,34.12,0,0,1,2,11.79q0,21.35-21.35,31.25,28,8.93,28,34.74a39,39,0,0,1-6.11,21.5,36.69,36.69,0,0,1-16.5,14.12A58.66,58.66,0,0,1,932,312.44,152.38,152.38,0,0,1,912.26,313.56ZM880.13,192.93v36.78h26.4q10.77,0,16.64-2a15.89,15.89,0,0,0,9-7.76,17.5,17.5,0,0,0,2.43-9.12q0-10.77-7.67-14.31t-23.39-3.54H880.13Zm30,57.45h-30v41.54h31q29.21,0,29.21-21.06,0-10.77-7.57-15.62T910.12,250.38Z" transform="translate(-397.33 -58.54)"></path>

                            <path class="46097f0b-bcf4-41a0-88e5-1e5470d5cffa green-part" d="M1082.28,193.85h-31.44V297.21q0,8.93-4,13.25a13.35,13.35,0,0,1-10.29,4.32,13.54,13.54,0,0,1-10.43-4.37q-4-4.37-4-13.2V193.85H990.67q-7.38,0-11-3.25a11,11,0,0,1-3.59-8.59,10.9,10.9,0,0,1,3.74-8.73q3.73-3.2,10.82-3.2h91.61q7.47,0,11.11,3.3A11.11,11.11,0,0,1,1097,182a10.89,10.89,0,0,1-3.69,8.59Q1089.65,193.85,1082.28,193.85Z" transform="translate(-397.33 -58.54)"></path>

                            <path class="54586e15-abb4-4e4b-8221-07249b734060 blue-part" d="M1217.06,270.86a41.81,41.81,0,0,1-6.65,23.19q-6.65,10.29-19.46,16.11T1160.58,316q-21.06,0-34.74-8a46.28,46.28,0,0,1-15.77-15.29q-6.07-9.56-6.07-18.58a12.6,12.6,0,0,1,12.91-12.71,11,11,0,0,1,7.72,2.91A22.92,22.92,0,0,1,1130,273a57.58,57.58,0,0,0,5.87,11.35,23.78,23.78,0,0,0,8.88,7.52q5.72,3,15,3,12.81,0,20.82-6t8-14.9a15.75,15.75,0,0,0-4.32-11.5,27.84,27.84,0,0,0-11.16-6.74q-6.84-2.33-18.29-4.95a134.06,134.06,0,0,1-25.67-8.39,41.47,41.47,0,0,1-16.4-13.1q-6.07-8.3-6.07-20.62a35.41,35.41,0,0,1,6.41-20.87q6.4-9.12,18.54-14t28.53-4.9a70.59,70.59,0,0,1,22.66,3.25,47.93,47.93,0,0,1,15.87,8.64,36.1,36.1,0,0,1,9.22,11.31,26.06,26.06,0,0,1,2.91,11.55,13.65,13.65,0,0,1-3.64,9.27,11.61,11.61,0,0,1-9.07,4.12q-4.95,0-7.52-2.47a33.33,33.33,0,0,1-5.58-8.1,36.75,36.75,0,0,0-9.32-12.57q-5.44-4.51-17.47-4.51-11.16,0-18,4.9T1133.41,206a11.94,11.94,0,0,0,2.33,7.37,19.57,19.57,0,0,0,6.41,5.34,42.92,42.92,0,0,0,8.25,3.49q4.17,1.26,13.78,3.69a216.78,216.78,0,0,1,21.79,6.21,66.27,66.27,0,0,1,16.6,8.25,34,34,0,0,1,10.67,12.28Q1217.06,260.09,1217.06,270.86Z" transform="translate(-397.33 -58.54)"></path>

                            <path class="54586e15-abb4-4e4b-8221-07249b734060 blue-part" d="M1292.71,168.86q22.13,0,38,9a58.18,58.18,0,0,1,24,25.52q8.15,16.55,8.15,38.87a95.09,95.09,0,0,1-4.46,30A64.9,64.9,0,0,1,1345,295.6a58.51,58.51,0,0,1-21.93,15.14q-13,5.24-29.79,5.24t-29.89-5.39a59.26,59.26,0,0,1-22-15.19A64.85,64.85,0,0,1,1228,271.83a95.16,95.16,0,0,1-4.51-29.79,92,92,0,0,1,4.71-30.08,64.52,64.52,0,0,1,13.64-23.29A59,59,0,0,1,1263.6,174Q1276.41,168.86,1292.71,168.86Zm41,73.17q0-15.62-5-27.08t-14.41-17.32a39.61,39.61,0,0,0-21.5-5.87,38.92,38.92,0,0,0-16,3.25,35.1,35.1,0,0,0-12.62,9.46,45.22,45.22,0,0,0-8.35,15.87,71.73,71.73,0,0,0-3.06,21.69,73.51,73.51,0,0,0,3.06,21.93,45,45,0,0,0,8.64,16.25,36.24,36.24,0,0,0,12.81,9.66,40.46,40.46,0,0,0,36.2-2.33q9.27-5.53,14.75-17.08T1333.67,242Z" transform="translate(-397.33 -58.54)"></path>

                            <path class="54586e15-abb4-4e4b-8221-07249b734060 blue-part" d="M1461.14,192.3h-56.77v36.39h47.46q6.6,0,9.85,3a10.18,10.18,0,0,1,3.25,7.91,10,10,0,0,1-3.3,7.86q-3.3,2.91-9.8,2.91h-47.46v46.87q0,8.93-4,13.25a14.59,14.59,0,0,1-20.77,0q-4-4.37-4-13.2V187.74a24,24,0,0,1,1.84-10.14,11.45,11.45,0,0,1,5.77-5.72,24.28,24.28,0,0,1,10-1.8h67.93q6.89,0,10.24,3.06a10.33,10.33,0,0,1,3.35,8,10.45,10.45,0,0,1-3.35,8.1Q1468,192.3,1461.14,192.3Z" transform="translate(-397.33 -58.54)"></path>

                            <path class="54586e15-abb4-4e4b-8221-07249b734060 blue-part" d="M1588.56,193.85h-31.44V297.21q0,8.93-4,13.25a13.35,13.35,0,0,1-10.29,4.32,13.54,13.54,0,0,1-10.43-4.37q-4-4.37-4-13.2V193.85h-31.44q-7.38,0-11-3.25a11,11,0,0,1-3.59-8.59,10.9,10.9,0,0,1,3.74-8.73q3.73-3.2,10.82-3.2h91.61q7.47,0,11.11,3.3a11.11,11.11,0,0,1,3.64,8.64,10.89,10.89,0,0,1-3.69,8.59Q1595.93,193.85,1588.56,193.85Z" transform="translate(-397.33 -58.54)"></path>

                        </svg>